<svg data-v-423bf9ae="" xmlns="http://www.w3.org/2000/svg" viewBox="0 0 438 107" class="iconLeftSlogan"><!----><!----><!----><g data-v-423bf9ae="" id="581ee121-6d0b-4a57-9562-0e0f37276988" fill="white" transform="matrix(5.102041130775599,0,0,5.102041130775599,98.88903640034937,-24.846940199832055)"><path d="M7.20 16.21L7.20 16.21Q7.17 16.23 7.14 16.23Q7.11 16.23 7.03 16.23L7.03 16.23Q6.83 16.23 6.57 16.16Q6.31 16.10 6.07 16.01Q5.82 15.92 5.65 15.81Q5.47 15.69 5.43 15.61L5.43 15.61Q5.42 15.41 5.42 15.20Q5.42 14.99 5.42 14.80L5.42 14.80Q5.42 13.23 5.65 11.52Q5.88 9.81 6.41 7.83L6.41 7.83Q6.47 7.63 6.53 7.33Q6.59 7.03 6.66 6.68L6.66 6.68Q6.33 6.94 5.87 7.53Q5.40 8.11 4.89 8.90Q4.38 9.69 3.87 10.63Q3.36 11.58 2.94 12.55Q2.52 13.52 2.22 14.48Q1.92 15.43 1.85 16.24L1.85 16.24Q1.18 16.04 0.92 15.85Q0.66 15.65 0.66 15.37L0.66 15.37Q0.66 15.12 0.81 14.66Q0.97 14.20 1.25 13.57Q1.53 12.94 1.93 12.16Q2.34 11.38 2.83 10.49L2.83 10.49Q3.39 9.46 3.93 8.57Q4.47 7.67 4.98 6.94Q5.50 6.22 6.00 5.68Q6.50 5.15 6.99 4.87L6.99 4.87Q7.18 4.87 7.51 4.97Q7.84 5.07 8.15 5.21Q8.47 5.35 8.71 5.49Q8.96 5.64 8.99 5.74L8.99 5.74Q8.79 6.13 8.53 6.92Q8.26 7.70 7.99 8.69Q7.71 9.69 7.47 10.80Q7.22 11.91 7.08 12.94L7.08 12.94Q7.41 12.17 7.83 11.33Q8.26 10.50 8.74 9.68Q9.21 8.86 9.71 8.09Q10.21 7.32 10.68 6.69Q11.16 6.05 11.57 5.57Q11.98 5.10 12.31 4.87L12.31 4.87Q12.50 4.87 12.83 4.97Q13.16 5.07 13.47 5.21Q13.79 5.35 14.04 5.49Q14.28 5.64 14.31 5.74L14.31 5.74Q13.86 6.54 13.52 7.69Q13.19 8.83 12.96 10.09Q12.73 11.35 12.61 12.59Q12.49 13.83 12.49 14.81L12.49 14.81Q12.49 15.13 12.49 15.48Q12.49 15.83 12.52 16.21L12.52 16.21Q12.32 16.21 12.05 16.16Q11.77 16.11 11.52 16.03Q11.26 15.95 11.05 15.84Q10.84 15.74 10.75 15.61L10.75 15.61Q10.74 15.41 10.74 15.20Q10.74 14.99 10.74 14.80L10.74 14.80Q10.74 13.23 10.97 11.52Q11.20 9.81 11.73 7.83L11.73 7.83Q11.79 7.63 11.86 7.29Q11.93 6.96 12.00 6.59L12.00 6.59Q11.61 6.79 11.11 7.34Q10.61 7.90 10.10 8.69Q9.59 9.48 9.09 10.44Q8.60 11.41 8.20 12.41Q7.80 13.41 7.53 14.40Q7.25 15.39 7.20 16.21ZM18.02 14.87L18.02 14.87Q17.75 14.64 17.66 14.31Q17.57 13.97 17.57 13.73L17.57 13.73Q17.57 13.44 17.64 13.23L17.64 13.23Q17.58 13.23 17.39 13.45Q17.19 13.68 16.96 13.99Q16.73 14.29 16.51 14.59Q16.28 14.88 16.17 15.02L16.17 15.02Q15.99 15.22 15.83 15.33Q15.67 15.44 15.57 15.46L15.57 15.46Q15.34 15.44 15.10 15.37Q14.85 15.29 14.64 15.15Q14.42 15.01 14.26 14.81Q14.10 14.62 14.04 14.36L14.04 14.36Q14.04 13.97 14.06 13.72Q14.08 13.47 14.15 13.17L14.15 13.17Q14.28 12.64 14.53 11.97Q14.77 11.30 15.09 10.65Q15.41 10.00 15.81 9.43Q16.21 8.86 16.66 8.54L16.66 8.54Q16.79 8.54 16.95 8.56Q17.12 8.58 17.30 8.64Q17.47 8.69 17.63 8.77Q17.79 8.85 17.91 8.97L17.91 8.97Q17.78 9.11 17.27 9.91Q16.76 10.71 16.13 12.21L16.13 12.21Q16.06 12.36 15.96 12.66Q15.86 12.95 15.76 13.27Q15.67 13.59 15.60 13.90Q15.54 14.21 15.54 14.39L15.54 14.39Q15.54 14.50 15.57 14.56Q15.61 14.62 15.64 14.64L15.64 14.64Q15.85 14.56 16.17 14.18Q16.49 13.80 17.07 13.02L17.07 13.02Q17.21 12.82 17.39 12.57Q17.58 12.32 17.78 12.03Q17.98 11.75 18.15 11.44Q18.33 11.13 18.44 10.82L18.44 10.82Q18.49 10.65 18.59 10.42Q18.68 10.19 18.81 9.94Q18.94 9.69 19.12 9.43Q19.29 9.17 19.53 8.95L19.53 8.95Q19.71 8.95 19.92 8.99Q20.13 9.03 20.32 9.09Q20.51 9.16 20.65 9.23Q20.79 9.31 20.86 9.39L20.86 9.39Q20.61 10.01 20.30 10.61Q19.99 11.21 19.73 11.79Q19.46 12.38 19.28 12.95Q19.10 13.52 19.10 14.07L19.10 14.07Q19.10 14.36 19.14 14.58Q19.19 14.80 19.25 14.95Q19.31 15.09 19.36 15.19Q19.40 15.29 19.40 15.36L19.40 15.36Q19.40 15.37 19.38 15.40L19.38 15.40Q19.36 15.41 19.35 15.41L19.35 15.41Q19.25 15.41 19.10 15.37Q18.94 15.33 18.75 15.25Q18.56 15.18 18.38 15.08Q18.19 14.98 18.02 14.87ZM25.96 9.60L25.96 9.60Q25.94 9.87 25.87 10.16Q25.79 10.44 25.68 10.68Q25.56 10.91 25.44 11.06Q25.31 11.21 25.20 11.21L25.20 11.21Q25.05 11.20 25.02 11.00L25.02 11.00Q25.02 10.96 25.05 10.87Q25.09 10.78 25.13 10.67Q25.17 10.56 25.21 10.44Q25.24 10.33 25.24 10.25L25.24 10.25Q25.24 10.05 25.15 9.92Q25.06 9.79 24.91 9.79L24.91 9.79Q24.35 9.79 24.05 10.49Q23.76 11.19 23.76 12.54L23.76 12.54Q23.76 12.68 23.77 12.71L23.77 12.71Q24.07 12.70 24.30 12.69Q24.53 12.68 24.75 12.68L24.75 12.68Q24.77 12.71 24.77 12.80L24.77 12.80Q24.77 12.92 24.71 12.98L24.71 12.98Q24.39 13.05 24.20 13.10Q24.01 13.15 23.91 13.19Q23.81 13.23 23.79 13.28Q23.77 13.33 23.77 13.41L23.77 13.41Q23.77 13.52 23.78 13.64Q23.79 13.75 23.79 13.92L23.79 13.92Q23.79 15.09 23.15 15.81Q22.51 16.52 21.38 16.63L21.38 16.63Q21.18 16.62 20.97 16.52Q20.76 16.42 20.57 16.27Q20.38 16.11 20.24 15.93Q20.10 15.74 20.05 15.54L20.05 15.54Q20.05 15.01 20.27 14.53Q20.50 14.04 20.88 13.67Q21.27 13.30 21.79 13.07Q22.32 12.84 22.93 12.80L22.93 12.80Q22.93 12.45 22.86 12.11Q22.79 11.77 22.71 11.46Q22.64 11.14 22.57 10.84Q22.50 10.54 22.50 10.25L22.50 10.25Q22.50 9.87 22.65 9.50Q22.81 9.13 23.06 8.81Q23.31 8.50 23.65 8.27Q23.98 8.05 24.35 7.97L24.35 7.97Q24.50 8.01 24.76 8.21Q25.02 8.41 25.27 8.67Q25.52 8.92 25.72 9.18Q25.91 9.44 25.96 9.60ZM21.34 15.99L21.34 15.99Q21.67 15.85 21.97 15.58Q22.27 15.32 22.50 14.98Q22.72 14.64 22.86 14.27Q22.99 13.89 22.99 13.52L22.99 13.52Q22.71 13.57 22.37 13.78Q22.04 14 21.74 14.30Q21.45 14.60 21.25 14.92Q21.06 15.25 21.06 15.48L21.06 15.48Q21.06 15.79 21.34 15.99ZM30.98 9.38L30.98 9.38Q30.93 10.25 30.67 10.87Q30.42 11.49 29.95 11.96Q29.48 12.43 28.81 12.81Q28.14 13.19 27.24 13.54L27.24 13.54Q27.24 13.62 27.24 13.71Q27.23 13.80 27.23 13.90L27.23 13.90Q27.23 14.08 27.26 14.28Q27.29 14.48 27.36 14.64Q27.43 14.81 27.55 14.92Q27.68 15.02 27.87 15.02L27.87 15.02Q28.25 15.02 28.62 14.85Q28.98 14.69 29.31 14.44Q29.64 14.20 29.93 13.91Q30.21 13.62 30.44 13.38L30.44 13.38Q30.58 13.51 30.67 13.62L30.67 13.62Q30.04 14.46 29.30 15.02Q28.55 15.57 27.87 15.72L27.87 15.72Q26.91 15.61 26.37 15.02Q25.83 14.42 25.83 13.58L25.83 13.58Q25.83 13.01 25.99 12.41Q26.15 11.82 26.44 11.26Q26.73 10.71 27.11 10.22Q27.50 9.73 27.94 9.37Q28.38 9.00 28.85 8.79Q29.32 8.58 29.78 8.58L29.78 8.58Q30.42 8.67 30.98 9.38ZM30.02 9.84L30.02 9.84Q29.64 9.90 29.23 10.15Q28.83 10.40 28.47 10.82Q28.11 11.24 27.82 11.80Q27.52 12.36 27.36 13.01L27.36 13.01Q28.48 12.45 29.22 11.63Q29.96 10.81 30.02 9.84ZM37.46 16.21L37.46 16.21Q37.44 16.23 37.41 16.23Q37.38 16.23 37.30 16.23L37.30 16.23Q37.10 16.23 36.84 16.16Q36.58 16.10 36.34 16.01Q36.09 15.92 35.92 15.81Q35.74 15.69 35.70 15.61L35.70 15.61Q35.69 15.41 35.69 15.20Q35.69 14.99 35.69 14.80L35.69 14.80Q35.69 13.23 35.92 11.52Q36.15 9.81 36.68 7.83L36.68 7.83Q36.74 7.63 36.80 7.33Q36.86 7.03 36.93 6.68L36.93 6.68Q36.60 6.94 36.13 7.53Q35.67 8.11 35.16 8.90Q34.65 9.69 34.14 10.63Q33.63 11.58 33.21 12.55Q32.79 13.52 32.49 14.48Q32.19 15.43 32.12 16.24L32.12 16.24Q31.44 16.04 31.19 15.85Q30.93 15.65 30.93 15.37L30.93 15.37Q30.93 15.12 31.08 14.66Q31.23 14.20 31.51 13.57Q31.79 12.94 32.20 12.16Q32.61 11.38 33.10 10.49L33.10 10.49Q33.66 9.46 34.20 8.57Q34.73 7.67 35.25 6.94Q35.77 6.22 36.27 5.68Q36.76 5.15 37.25 4.87L37.25 4.87Q37.45 4.87 37.78 4.97Q38.11 5.07 38.42 5.21Q38.74 5.35 38.98 5.49Q39.23 5.64 39.26 5.74L39.26 5.74Q39.06 6.13 38.79 6.92Q38.53 7.70 38.26 8.69Q37.98 9.69 37.74 10.80Q37.49 11.91 37.35 12.94L37.35 12.94Q37.67 12.17 38.10 11.33Q38.53 10.50 39.00 9.68Q39.48 8.86 39.98 8.09Q40.47 7.32 40.95 6.69Q41.43 6.05 41.84 5.57Q42.25 5.10 42.57 4.87L42.57 4.87Q42.77 4.87 43.10 4.97Q43.43 5.07 43.74 5.21Q44.06 5.35 44.30 5.49Q44.55 5.64 44.58 5.74L44.58 5.74Q44.13 6.54 43.79 7.69Q43.46 8.83 43.23 10.09Q42.99 11.35 42.88 12.59Q42.76 13.83 42.76 14.81L42.76 14.81Q42.76 15.13 42.76 15.48Q42.76 15.83 42.78 16.21L42.78 16.21Q42.59 16.21 42.31 16.16Q42.04 16.11 41.78 16.03Q41.52 15.95 41.31 15.84Q41.10 15.74 41.02 15.61L41.02 15.61Q41.01 15.41 41.01 15.20Q41.01 14.99 41.01 14.80L41.01 14.80Q41.01 13.23 41.24 11.52Q41.47 9.81 42 7.83L42 7.83Q42.06 7.63 42.13 7.29Q42.20 6.96 42.27 6.59L42.27 6.59Q41.87 6.79 41.38 7.34Q40.88 7.90 40.37 8.69Q39.86 9.48 39.36 10.44Q38.86 11.41 38.47 12.41Q38.07 13.41 37.79 14.40Q37.52 15.39 37.46 16.21ZM49.45 9.38L49.45 9.38Q49.39 10.25 49.14 10.87Q48.89 11.49 48.42 11.96Q47.95 12.43 47.28 12.81Q46.61 13.19 45.71 13.54L45.71 13.54Q45.71 13.62 45.70 13.71Q45.70 13.80 45.70 13.90L45.70 13.90Q45.70 14.08 45.72 14.28Q45.75 14.48 45.82 14.64Q45.89 14.81 46.02 14.92Q46.14 15.02 46.34 15.02L46.34 15.02Q46.72 15.02 47.08 14.85Q47.45 14.69 47.78 14.44Q48.10 14.20 48.39 13.91Q48.68 13.62 48.90 13.38L48.90 13.38Q49.04 13.51 49.14 13.62L49.14 13.62Q48.51 14.46 47.76 15.02Q47.01 15.57 46.34 15.72L46.34 15.72Q45.37 15.61 44.84 15.02Q44.30 14.42 44.30 13.58L44.30 13.58Q44.30 13.01 44.46 12.41Q44.62 11.82 44.91 11.26Q45.19 10.71 45.58 10.22Q45.96 9.73 46.40 9.37Q46.84 9.00 47.31 8.79Q47.78 8.58 48.24 8.58L48.24 8.58Q48.89 8.67 49.45 9.38ZM48.48 9.84L48.48 9.84Q48.10 9.90 47.70 10.15Q47.29 10.40 46.94 10.82Q46.58 11.24 46.28 11.80Q45.99 12.36 45.82 13.01L45.82 13.01Q46.94 12.45 47.68 11.63Q48.43 10.81 48.48 9.84ZM58.18 10.88L58.18 10.88Q57.96 10.89 57.64 11.16Q57.32 11.44 56.95 11.87Q56.57 12.29 56.18 12.81Q55.78 13.33 55.41 13.84Q55.03 14.35 54.71 14.80Q54.39 15.25 54.17 15.51L54.17 15.51Q53.86 15.39 53.63 15.14Q53.41 14.90 53.31 14.53L53.31 14.53Q53.38 14.10 53.51 13.63Q53.63 13.16 53.84 12.66Q54.04 12.15 54.34 11.60Q54.64 11.05 55.08 10.43L55.08 10.43Q54.87 10.44 54.50 10.73Q54.14 11.02 53.72 11.47Q53.30 11.93 52.85 12.50Q52.40 13.06 52.01 13.61L52.01 13.61Q51.49 14.34 51.15 14.88Q50.81 15.43 50.65 15.53L50.65 15.53Q50.29 15.26 50.15 14.95Q50.01 14.64 49.94 14.27L49.94 14.27Q49.95 13.93 50.04 13.43Q50.13 12.92 50.30 12.39L50.30 12.39Q50.62 11.37 51.14 10.36Q51.65 9.35 52.12 8.51L52.12 8.51Q52.51 8.60 52.83 8.78Q53.14 8.96 53.49 9.31L53.49 9.31Q53.35 9.74 53.06 10.23Q52.77 10.71 52.44 11.24Q52.12 11.77 51.86 12.33Q51.59 12.89 51.51 13.47L51.51 13.47Q51.90 12.91 52.44 12.18Q52.98 11.45 53.54 10.81Q54.11 10.16 54.67 9.72Q55.23 9.27 55.68 9.27L55.68 9.27Q55.85 9.27 56.04 9.32Q56.24 9.38 56.41 9.46Q56.57 9.55 56.69 9.63Q56.80 9.70 56.81 9.74L56.81 9.74Q56.74 10.02 56.48 10.51Q56.22 10.99 55.93 11.52Q55.64 12.05 55.38 12.55Q55.13 13.05 55.09 13.34L55.09 13.34Q55.78 12.40 56.38 11.64Q56.98 10.88 57.51 10.33Q58.04 9.79 58.50 9.49Q58.95 9.20 59.36 9.20L59.36 9.20Q59.64 9.20 59.89 9.34Q60.13 9.49 60.23 9.77L60.23 9.77Q60.10 10.19 59.81 10.78Q59.53 11.37 59.23 12.02Q58.94 12.67 58.71 13.30Q58.48 13.93 58.48 14.43L58.48 14.43Q58.48 14.73 58.56 14.82Q58.65 14.91 58.80 14.91L58.80 14.91Q58.97 14.91 59.12 14.85Q59.26 14.78 59.33 14.78L59.33 14.78Q59.42 14.84 59.43 14.92Q59.44 15.01 59.44 15.08L59.44 15.08Q59.16 15.30 58.87 15.45Q58.58 15.60 58.21 15.60L58.21 15.60Q57.88 15.60 57.66 15.48Q57.44 15.37 57.30 15.18Q57.16 14.98 57.11 14.73Q57.05 14.48 57.05 14.18L57.05 14.18Q57.05 13.71 57.18 13.24Q57.30 12.77 57.48 12.34Q57.65 11.91 57.85 11.54Q58.04 11.17 58.18 10.88ZM62.45 15.67L62.45 15.67Q61.66 15.58 61.18 14.97Q60.70 14.35 60.70 13.40L60.70 13.40Q60.70 12.84 60.87 12.24Q61.04 11.63 61.35 11.07Q61.66 10.50 62.08 10.00Q62.50 9.49 62.99 9.13L62.99 9.13Q63.76 8.55 64.43 8.55L64.43 8.55Q64.88 8.79 65.31 9.55L65.31 9.55Q65.38 9.55 65.44 9.54Q65.49 9.53 65.56 9.53L65.56 9.53Q66.30 9.53 66.30 10.85L66.30 10.85Q66.30 11.73 66.02 12.52Q65.73 13.31 65.22 13.96Q64.71 14.60 64.00 15.04Q63.29 15.48 62.45 15.67ZM63.17 11.26L63.17 11.26Q62.93 11.58 62.72 11.96Q62.51 12.33 62.36 12.72Q62.20 13.10 62.12 13.46Q62.03 13.82 62.03 14.10L62.03 14.10Q62.03 14.43 62.15 14.74Q62.26 15.05 62.40 15.09L62.40 15.09Q63.03 14.95 63.55 14.57Q64.08 14.18 64.46 13.61Q64.85 13.03 65.06 12.31Q65.28 11.58 65.28 10.75L65.28 10.75Q65.28 10.39 65.24 10.18Q65.20 9.97 65.10 9.81L65.10 9.81Q64.48 10.00 64.00 10.40Q63.52 10.81 63.17 11.26Z"></path></g><!----><g data-v-423bf9ae="" id="6796757c-d03e-4d9c-b5a4-534a3066e1ac" transform="matrix(1.0868111504448785,0,0,1.0868111504448785,-13.255261890115804,-0.23894260335429607)" stroke="none" fill="white"><g clip-rule="evenodd"><path d="M12.983 10.59l17.018 88.223-5.872-59.049 29.021-1.892-.054-9.883L64.549 1 53.622 18.977z"></path><path d="M59.389 54.548l5.16-53.541-8.74 39.716-19.612 1.045 1.57 20.462-7.766 36.583 12.057-39.899z"></path><path d="M62.8 67.182l.549-10.453-15.979 3.755-.032 11.797-17.337 26.532 21.68-27.616zM65.711 62.394l14.841-4.731 1.509-12.532-15.899 2.095zM72.07 44.502l10.988-1.417 1.581-10.278-8.079-.373L64.549 1l8.43 30.967z"></path><path d="M87.413 31.294l1.256-9.506-9.544-2.694L64.549 1l14.483 22.437-.422 7z"></path></g></g><!----><g data-v-423bf9ae="" id="a0a10750-c889-453c-80af-fdff696f4d19" fill="white" transform="matrix(0.4402786642491038,0,0,0.4402786642491038,101.96579792201186,57.87785556466606)"><path d="M7.20 16.21L7.20 16.21Q7.17 16.23 7.14 16.23Q7.11 16.23 7.03 16.23L7.03 16.23Q6.83 16.23 6.57 16.16Q6.31 16.10 6.07 16.01Q5.82 15.92 5.65 15.81Q5.47 15.69 5.43 15.61L5.43 15.61Q5.42 15.41 5.42 15.20Q5.42 14.99 5.42 14.80L5.42 14.80Q5.42 13.23 5.65 11.52Q5.88 9.81 6.41 7.83L6.41 7.83Q6.47 7.63 6.53 7.33Q6.59 7.03 6.66 6.68L6.66 6.68Q6.33 6.94 5.87 7.53Q5.40 8.11 4.89 8.90Q4.38 9.69 3.87 10.63Q3.36 11.58 2.94 12.55Q2.52 13.52 2.22 14.48Q1.92 15.43 1.85 16.24L1.85 16.24Q1.18 16.04 0.92 15.85Q0.66 15.65 0.66 15.37L0.66 15.37Q0.66 15.12 0.81 14.66Q0.97 14.20 1.25 13.57Q1.53 12.94 1.93 12.16Q2.34 11.38 2.83 10.49L2.83 10.49Q3.39 9.46 3.93 8.57Q4.47 7.67 4.98 6.94Q5.50 6.22 6.00 5.68Q6.50 5.15 6.99 4.87L6.99 4.87Q7.18 4.87 7.51 4.97Q7.84 5.07 8.15 5.21Q8.47 5.35 8.71 5.49Q8.96 5.64 8.99 5.74L8.99 5.74Q8.79 6.13 8.53 6.92Q8.26 7.70 7.99 8.69Q7.71 9.69 7.47 10.80Q7.22 11.91 7.08 12.94L7.08 12.94Q7.41 12.17 7.83 11.33Q8.26 10.50 8.74 9.68Q9.21 8.86 9.71 8.09Q10.21 7.32 10.68 6.69Q11.16 6.05 11.57 5.57Q11.98 5.10 12.31 4.87L12.31 4.87Q12.50 4.87 12.83 4.97Q13.16 5.07 13.47 5.21Q13.79 5.35 14.04 5.49Q14.28 5.64 14.31 5.74L14.31 5.74Q13.86 6.54 13.52 7.69Q13.19 8.83 12.96 10.09Q12.73 11.35 12.61 12.59Q12.49 13.83 12.49 14.81L12.49 14.81Q12.49 15.13 12.49 15.48Q12.49 15.83 12.52 16.21L12.52 16.21Q12.32 16.21 12.05 16.16Q11.77 16.11 11.52 16.03Q11.26 15.95 11.05 15.84Q10.84 15.74 10.75 15.61L10.75 15.61Q10.74 15.41 10.74 15.20Q10.74 14.99 10.74 14.80L10.74 14.80Q10.74 13.23 10.97 11.52Q11.20 9.81 11.73 7.83L11.73 7.83Q11.79 7.63 11.86 7.29Q11.93 6.96 12.00 6.59L12.00 6.59Q11.61 6.79 11.11 7.34Q10.61 7.90 10.10 8.69Q9.59 9.48 9.09 10.44Q8.60 11.41 8.20 12.41Q7.80 13.41 7.53 14.40Q7.25 15.39 7.20 16.21ZM27.26 9.21L27.26 9.21Q27.72 9.21 27.98 9.46Q28.24 9.72 28.24 10.16L28.24 10.16Q28.24 10.28 28.22 10.39Q28.20 10.51 28.17 10.60L28.17 10.60Q27.99 10.57 27.76 10.55Q27.54 10.53 27.23 10.53L27.23 10.53Q26.63 10.53 26.01 10.63Q25.40 10.74 24.84 10.81L24.84 10.81Q24.51 11.55 24.25 12.24Q23.98 12.94 23.79 13.51Q23.60 14.08 23.50 14.50Q23.39 14.92 23.38 15.13L23.38 15.13Q24.51 14.90 25.67 14.73Q26.82 14.56 28.10 14.48L28.10 14.48Q28.25 14.71 28.36 14.99Q28.46 15.27 28.46 15.60L28.46 15.60Q28.46 15.68 28.46 15.78Q28.46 15.88 28.43 15.97L28.43 15.97Q28.04 15.96 27.61 15.95Q27.17 15.95 26.47 15.95L26.47 15.95Q26.01 15.95 25.60 15.97Q25.19 15.99 24.77 16.03Q24.35 16.07 23.88 16.14Q23.41 16.21 22.82 16.31L22.82 16.31Q22.18 16.06 21.57 15.08L21.57 15.08Q21.81 14.57 22.24 13.54Q22.67 12.52 23.32 10.79L23.32 10.79Q22.69 10.60 22.50 10.09L22.50 10.09Q22.57 10.02 22.90 9.92Q23.24 9.81 23.73 9.70L23.73 9.70Q23.94 9.16 24.09 8.75Q24.23 8.34 24.35 7.99Q24.46 7.63 24.55 7.29Q24.64 6.94 24.72 6.54L24.72 6.54Q24.23 6.51 23.95 6.27Q23.67 6.02 23.67 5.63L23.67 5.63Q23.67 5.52 23.71 5.36Q23.74 5.21 23.79 5.10L23.79 5.10Q24.07 5.14 24.33 5.15Q24.58 5.17 25.00 5.17L25.00 5.17Q25.89 5.17 26.66 5.12Q27.43 5.07 28.05 5.01Q28.67 4.96 29.12 4.91Q29.57 4.86 29.81 4.86L29.81 4.86Q30.13 4.86 30.38 5.19Q30.63 5.53 30.76 6.15L30.76 6.15Q30.32 6.10 30.05 6.09Q29.78 6.08 29.57 6.08L29.57 6.08Q28.80 6.08 28.16 6.15Q27.52 6.23 26.94 6.31L26.94 6.31Q26.85 6.44 26.75 6.64Q26.64 6.83 26.47 7.18Q26.31 7.53 26.06 8.06Q25.82 8.60 25.47 9.39L25.47 9.39Q26.00 9.31 26.47 9.26Q26.94 9.21 27.26 9.21ZM42.78 16.21L42.78 16.21Q42.76 16.23 42.73 16.23Q42.70 16.23 42.62 16.23L42.62 16.23Q42.42 16.23 42.16 16.16Q41.90 16.10 41.66 16.01Q41.41 15.92 41.24 15.81Q41.06 15.69 41.02 15.61L41.02 15.61Q41.01 15.41 41.01 15.20Q41.01 14.99 41.01 14.80L41.01 14.80Q41.01 13.23 41.24 11.52Q41.47 9.81 42 7.83L42 7.83Q42.06 7.63 42.12 7.33Q42.18 7.03 42.25 6.68L42.25 6.68Q41.92 6.94 41.45 7.53Q40.99 8.11 40.48 8.90Q39.97 9.69 39.46 10.63Q38.95 11.58 38.53 12.55Q38.11 13.52 37.81 14.48Q37.51 15.43 37.44 16.24L37.44 16.24Q36.76 16.04 36.51 15.85Q36.25 15.65 36.25 15.37L36.25 15.37Q36.25 15.12 36.40 14.66Q36.55 14.20 36.83 13.57Q37.11 12.94 37.52 12.16Q37.93 11.38 38.42 10.49L38.42 10.49Q38.98 9.46 39.52 8.57Q40.05 7.67 40.57 6.94Q41.09 6.22 41.59 5.68Q42.08 5.15 42.57 4.87L42.57 4.87Q42.77 4.87 43.10 4.97Q43.43 5.07 43.74 5.21Q44.06 5.35 44.30 5.49Q44.55 5.64 44.58 5.74L44.58 5.74Q44.38 6.13 44.11 6.92Q43.85 7.70 43.58 8.69Q43.30 9.69 43.06 10.80Q42.81 11.91 42.67 12.94L42.67 12.94Q42.99 12.17 43.42 11.33Q43.85 10.50 44.32 9.68Q44.80 8.86 45.30 8.09Q45.79 7.32 46.27 6.69Q46.75 6.05 47.16 5.57Q47.57 5.10 47.89 4.87L47.89 4.87Q48.09 4.87 48.42 4.97Q48.75 5.07 49.06 5.21Q49.38 5.35 49.62 5.49Q49.87 5.64 49.90 5.74L49.90 5.74Q49.45 6.54 49.11 7.69Q48.78 8.83 48.55 10.09Q48.31 11.35 48.20 12.59Q48.08 13.83 48.08 14.81L48.08 14.81Q48.08 15.13 48.08 15.48Q48.08 15.83 48.10 16.21L48.10 16.21Q47.91 16.21 47.64 16.16Q47.36 16.11 47.10 16.03Q46.84 15.95 46.63 15.84Q46.42 15.74 46.34 15.61L46.34 15.61Q46.33 15.41 46.33 15.20Q46.33 14.99 46.33 14.80L46.33 14.80Q46.33 13.23 46.56 11.52Q46.79 9.81 47.32 7.83L47.32 7.83Q47.38 7.63 47.45 7.29Q47.52 6.96 47.59 6.59L47.59 6.59Q47.19 6.79 46.70 7.34Q46.20 7.90 45.69 8.69Q45.18 9.48 44.68 10.44Q44.18 11.41 43.79 12.41Q43.39 13.41 43.11 14.40Q42.84 15.39 42.78 16.21ZM63.48 4.98L63.48 4.98Q63.74 5.10 64.02 5.27Q64.30 5.45 64.54 5.63Q64.78 5.81 64.94 5.98Q65.10 6.16 65.11 6.27L65.11 6.27Q64.88 6.22 64.64 6.20Q64.40 6.17 64.20 6.17L64.20 6.17Q63.57 6.17 62.95 6.48Q62.33 6.79 61.77 7.32Q61.21 7.85 60.73 8.57Q60.26 9.28 59.91 10.09Q59.57 10.91 59.37 11.77Q59.18 12.64 59.18 13.48L59.18 13.48Q59.18 14.57 59.54 15.11Q59.91 15.64 60.61 15.64L60.61 15.64Q60.94 15.64 61.33 15.51Q61.73 15.37 62.13 15.13Q62.54 14.90 62.93 14.56Q63.32 14.22 63.66 13.82L63.66 13.82Q64.15 13.23 64.54 12.48Q64.93 11.73 65.20 10.89Q65.48 10.05 65.63 9.16Q65.77 8.27 65.77 7.42L65.77 7.42Q65.77 7.08 65.76 6.85Q65.74 6.62 65.72 6.46Q65.70 6.30 65.69 6.20Q65.67 6.10 65.66 6.03L65.66 6.03Q65.83 6.12 66.03 6.24Q66.23 6.36 66.41 6.59Q66.58 6.82 66.70 7.20Q66.82 7.57 66.82 8.18L66.82 8.18Q66.82 9.16 66.59 10.10Q66.36 11.05 65.95 11.90Q65.53 12.75 64.97 13.50Q64.41 14.24 63.77 14.80L63.77 14.80Q62.93 15.54 61.98 15.95Q61.03 16.35 60.14 16.35L60.14 16.35Q58.86 16.35 58.18 15.53Q57.50 14.71 57.50 13.12L57.50 13.12Q57.50 12.26 57.69 11.31Q57.88 10.36 58.22 9.44Q58.56 8.51 59.04 7.68Q59.51 6.85 60.08 6.21Q60.65 5.57 61.30 5.19Q61.95 4.82 62.64 4.82L62.64 4.82Q62.86 4.82 63.06 4.85Q63.25 4.89 63.48 4.98ZM74.56 14.38L74.56 14.38Q74.56 13.87 74.73 13.07Q74.89 12.26 75.15 11.33Q75.40 10.40 75.74 9.43Q76.08 8.46 76.43 7.60Q76.78 6.75 77.11 6.10Q77.45 5.46 77.71 5.18L77.71 5.18Q77.85 5.19 78.09 5.29Q78.32 5.38 78.55 5.50Q78.79 5.63 78.99 5.78Q79.18 5.92 79.24 6.05L79.24 6.05Q78.83 6.41 78.44 7.15Q78.04 7.88 77.67 8.82Q77.29 9.76 76.97 10.80Q76.65 11.84 76.41 12.82Q76.17 13.80 76.04 14.64Q75.91 15.48 75.91 16.00L75.91 16.00Q75.91 16.24 75.95 16.30L75.95 16.30Q75.64 16.28 75.50 16.19Q75.36 16.10 75.29 16.00Q75.21 15.89 75.15 15.79Q75.08 15.68 74.96 15.62L74.96 15.62Q74.86 15.58 74.79 15.43Q74.72 15.27 74.67 15.09Q74.62 14.90 74.59 14.70Q74.56 14.50 74.56 14.38ZM95.07 7.46L95.07 7.46Q95.07 8.13 94.77 8.73Q94.47 9.32 93.94 9.79Q93.41 10.26 92.69 10.58Q91.98 10.91 91.14 11.02L91.14 11.02Q91.35 11.65 91.65 12.31Q91.95 12.98 92.30 13.59Q92.65 14.21 93.03 14.73Q93.41 15.25 93.77 15.58L93.77 15.58Q93.70 15.72 93.57 15.86Q93.44 16.00 93.26 16.12Q93.09 16.24 92.90 16.32Q92.71 16.39 92.54 16.39L92.54 16.39Q92.23 16.39 91.95 16.10Q91.67 15.81 91.39 15.17Q91.10 14.53 90.78 13.52Q90.47 12.50 90.09 11.07L90.09 11.07Q89.94 11.07 89.78 11.07Q89.63 11.07 89.54 11.05L89.54 11.05Q89.45 10.99 89.33 10.85L89.33 10.85Q88.96 11.66 88.66 12.38Q88.37 13.09 88.14 13.76Q87.91 14.42 87.73 15.04Q87.56 15.67 87.43 16.31L87.43 16.31Q86.95 16.20 86.60 15.90Q86.25 15.61 85.95 15.08L85.95 15.08Q86.00 14.95 86.06 14.83Q86.13 14.71 86.23 14.50Q86.32 14.28 86.47 13.94Q86.62 13.61 86.86 13.05Q87.11 12.49 87.45 11.68Q87.79 10.86 88.28 9.70L88.28 9.70Q88.51 9.18 88.67 8.79Q88.83 8.40 88.96 8.04Q89.08 7.69 89.19 7.33Q89.29 6.97 89.40 6.51L89.40 6.51Q88.76 6.73 88.21 7.01Q87.65 7.28 87.29 7.59L87.29 7.59Q87.16 7.50 87.03 7.34Q86.90 7.17 86.79 6.96Q86.67 6.76 86.59 6.55Q86.51 6.34 86.49 6.17L86.49 6.17Q86.91 5.89 87.52 5.66Q88.13 5.42 88.82 5.24Q89.50 5.07 90.22 4.97Q90.93 4.87 91.55 4.87L91.55 4.87Q93.23 4.87 94.15 5.56Q95.07 6.26 95.07 7.46ZM91.49 6.02L91.66 6.29Q91.56 6.41 91.35 6.79Q91.14 7.17 90.87 7.69Q90.59 8.22 90.29 8.83Q89.99 9.45 89.71 10.05L89.71 10.05Q90.76 10.05 91.64 9.86Q92.53 9.66 93.17 9.30Q93.81 8.95 94.17 8.46Q94.53 7.98 94.53 7.39L94.53 7.39Q94.53 6.69 94.02 6.32Q93.52 5.95 92.47 5.95L92.47 5.95Q92.23 5.95 91.99 5.97Q91.76 5.99 91.49 6.02L91.49 6.02ZM111.22 5.74L111.22 5.74Q111.26 5.98 111.28 6.07Q111.30 6.16 111.30 6.31L111.30 6.31Q111.30 6.78 111.10 7.18Q110.89 7.57 110.54 7.74L110.54 7.74Q110.26 7.36 109.86 7.09Q109.45 6.82 108.97 6.64Q108.49 6.47 107.97 6.38Q107.45 6.30 106.96 6.30L106.96 6.30Q106.47 6.30 106.04 6.38Q105.62 6.45 105.29 6.59Q104.96 6.72 104.77 6.92Q104.58 7.11 104.58 7.36L104.58 7.36Q104.62 7.67 104.96 7.99Q105.29 8.30 105.78 8.60Q106.27 8.90 106.87 9.20Q107.46 9.49 108.04 9.76L108.04 9.76Q108.75 10.09 109.27 10.38Q109.79 10.67 110.12 11.01Q110.46 11.35 110.63 11.79Q110.80 12.22 110.80 12.84L110.80 12.84Q110.80 13.55 110.56 14.18Q110.32 14.80 109.86 15.26Q109.41 15.72 108.77 15.98Q108.12 16.24 107.32 16.24L107.32 16.24Q106.54 16.24 105.63 16.00Q104.72 15.76 103.93 15.35Q103.14 14.94 102.61 14.40Q102.09 13.86 102.09 13.26L102.09 13.26Q102.09 12.98 102.25 12.54Q102.41 12.11 102.83 11.63L102.83 11.63Q102.87 12.05 103.28 12.63Q103.70 13.20 104.52 13.69L104.52 13.69Q105.29 14.14 106.11 14.34Q106.93 14.55 107.65 14.55L107.65 14.55Q108.43 14.55 108.92 14.35Q109.41 14.15 109.69 13.88Q109.97 13.61 110.08 13.33Q110.19 13.05 110.21 12.88L110.21 12.88Q110.19 12.60 109.95 12.34Q109.70 12.08 109.29 11.84Q108.88 11.59 108.33 11.34Q107.79 11.09 107.20 10.84L107.20 10.84Q106.32 10.44 105.68 10.10Q105.04 9.76 104.63 9.40Q104.22 9.04 104.03 8.65Q103.84 8.26 103.84 7.76L103.84 7.76Q103.84 6.97 104.31 6.27Q104.79 5.57 105.69 5.21L105.69 5.21Q106.13 5.01 106.64 4.93Q107.16 4.84 107.65 4.84L107.65 4.84Q108.57 4.84 109.45 5.10Q110.33 5.35 111.22 5.74ZM135.70 4.98L135.70 4.98Q135.97 5.10 136.25 5.27Q136.53 5.45 136.77 5.63Q137.00 5.81 137.16 5.98Q137.33 6.16 137.34 6.27L137.34 6.27Q137.10 6.22 136.86 6.20Q136.63 6.17 136.43 6.17L136.43 6.17Q135.80 6.17 135.18 6.48Q134.55 6.79 133.99 7.32Q133.43 7.85 132.96 8.57Q132.48 9.28 132.14 10.09Q131.80 10.91 131.60 11.77Q131.40 12.64 131.40 13.48L131.40 13.48Q131.40 14.57 131.77 15.11Q132.13 15.64 132.83 15.64L132.83 15.64Q133.17 15.64 133.56 15.51Q133.95 15.37 134.36 15.13Q134.76 14.90 135.16 14.56Q135.55 14.22 135.88 13.82L135.88 13.82Q136.37 13.23 136.77 12.48Q137.16 11.73 137.43 10.89Q137.70 10.05 137.85 9.16Q138.00 8.27 138.00 7.42L138.00 7.42Q138.00 7.08 137.98 6.85Q137.97 6.62 137.95 6.46Q137.93 6.30 137.91 6.20Q137.90 6.10 137.89 6.03L137.89 6.03Q138.05 6.12 138.26 6.24Q138.46 6.36 138.63 6.59Q138.81 6.82 138.93 7.20Q139.05 7.57 139.05 8.18L139.05 8.18Q139.05 9.16 138.82 10.10Q138.59 11.05 138.17 11.90Q137.76 12.75 137.20 13.50Q136.64 14.24 136.00 14.80L136.00 14.80Q135.16 15.54 134.20 15.95Q133.25 16.35 132.37 16.35L132.37 16.35Q131.08 16.35 130.40 15.53Q129.72 14.71 129.72 13.12L129.72 13.12Q129.72 12.26 129.91 11.31Q130.10 10.36 130.44 9.44Q130.79 8.51 131.26 7.68Q131.74 6.85 132.31 6.21Q132.87 5.57 133.52 5.19Q134.18 4.82 134.86 4.82L134.86 4.82Q135.09 4.82 135.28 4.85Q135.48 4.89 135.70 4.98ZM152.24 9.34L152.24 9.34Q152.68 9.34 152.94 9.59Q153.20 9.84 153.20 10.29L153.20 10.29Q153.20 10.40 153.19 10.52Q153.17 10.64 153.13 10.72L153.13 10.72Q152.95 10.70 152.73 10.68Q152.50 10.65 152.19 10.65L152.19 10.65Q151.56 10.65 150.93 10.77Q150.30 10.88 149.73 10.95L149.73 10.95Q149.10 12.43 148.69 13.73Q148.29 15.04 148.06 16.31L148.06 16.31Q147.59 16.20 147.22 15.90Q146.86 15.61 146.54 15.08L146.54 15.08Q146.64 14.85 146.78 14.54Q146.92 14.22 147.11 13.74Q147.31 13.26 147.58 12.56Q147.85 11.87 148.23 10.91L148.23 10.91Q147.64 10.71 147.46 10.22L147.46 10.22Q147.53 10.15 147.85 10.06Q148.18 9.97 148.64 9.86L148.64 9.86Q148.85 9.31 149.00 8.88Q149.16 8.46 149.28 8.07Q149.41 7.69 149.51 7.32Q149.62 6.94 149.70 6.52L149.70 6.52L149.63 6.52Q149.10 6.52 148.77 6.27Q148.44 6.02 148.44 5.61L148.44 5.61Q148.44 5.50 148.48 5.35Q148.51 5.19 148.57 5.08L148.57 5.08Q148.83 5.12 149.09 5.14Q149.35 5.15 149.77 5.15L149.77 5.15Q150.65 5.15 151.42 5.10Q152.19 5.05 152.82 5.00Q153.44 4.94 153.89 4.89Q154.34 4.84 154.57 4.84L154.57 4.84Q154.90 4.84 155.15 5.18Q155.40 5.52 155.54 6.13L155.54 6.13Q155.09 6.09 154.82 6.08Q154.55 6.06 154.34 6.06L154.34 6.06Q153.62 6.06 153.03 6.13Q152.43 6.19 151.90 6.27L151.90 6.27Q151.82 6.40 151.71 6.59Q151.61 6.79 151.44 7.15Q151.27 7.50 151.01 8.08Q150.75 8.65 150.36 9.53L150.36 9.53Q150.91 9.45 151.40 9.39Q151.90 9.34 152.24 9.34ZM171.99 12.43L171.99 12.43Q171.99 11.45 172.22 10.51Q172.45 9.56 172.87 8.71Q173.29 7.87 173.87 7.16Q174.45 6.45 175.15 5.94Q175.84 5.42 176.62 5.13Q177.41 4.84 178.23 4.84L178.23 4.84Q179.20 4.84 179.74 5.25Q180.28 5.66 180.28 6.38L180.28 6.38Q180.28 6.66 180.20 6.96Q180.12 7.25 179.98 7.54Q179.83 7.83 179.63 8.09Q179.44 8.36 179.20 8.55L179.20 8.55Q178.84 8.50 178.57 8.22Q178.30 7.95 178.23 7.59L178.23 7.59Q178.72 7.18 179.01 6.74Q179.30 6.30 179.30 5.94L179.30 5.94Q179.30 5.32 178.53 5.32L178.53 5.32Q178.21 5.32 177.86 5.45Q177.52 5.59 177.17 5.82Q176.82 6.06 176.49 6.40Q176.16 6.73 175.88 7.14L175.88 7.14Q173.94 9.94 173.94 12.87L173.94 12.87Q173.94 13.90 174.26 14.53Q174.58 15.16 175.11 15.27L175.11 15.27Q175.71 15.13 176.64 14.50Q177.56 13.87 178.65 12.87L178.65 12.87Q178.79 13.01 178.82 13.16L178.82 13.16Q178.42 13.69 177.98 14.18Q177.55 14.67 177.12 15.08Q176.69 15.48 176.28 15.79Q175.87 16.10 175.52 16.27L175.52 16.27Q173.78 16.24 172.89 15.27Q171.99 14.31 171.99 12.43ZM196.39 7.46L196.39 7.46Q196.39 8.13 196.09 8.73Q195.79 9.32 195.26 9.79Q194.73 10.26 194.01 10.58Q193.30 10.91 192.46 11.02L192.46 11.02Q192.67 11.65 192.97 12.31Q193.27 12.98 193.62 13.59Q193.97 14.21 194.35 14.73Q194.73 15.25 195.09 15.58L195.09 15.58Q195.02 15.72 194.89 15.86Q194.75 16.00 194.58 16.12Q194.40 16.24 194.21 16.32Q194.03 16.39 193.86 16.39L193.86 16.39Q193.55 16.39 193.27 16.10Q192.99 15.81 192.70 15.17Q192.42 14.53 192.10 13.52Q191.79 12.50 191.41 11.07L191.41 11.07Q191.25 11.07 191.10 11.07Q190.95 11.07 190.86 11.05L190.86 11.05Q190.76 10.99 190.65 10.85L190.65 10.85Q190.27 11.66 189.98 12.38Q189.69 13.09 189.45 13.76Q189.22 14.42 189.05 15.04Q188.87 15.67 188.75 16.31L188.75 16.31Q188.27 16.20 187.92 15.90Q187.57 15.61 187.26 15.08L187.26 15.08Q187.32 14.95 187.38 14.83Q187.45 14.71 187.54 14.50Q187.64 14.28 187.79 13.94Q187.94 13.61 188.18 13.05Q188.43 12.49 188.77 11.68Q189.11 10.86 189.60 9.70L189.60 9.70Q189.83 9.18 189.99 8.79Q190.15 8.40 190.27 8.04Q190.40 7.69 190.50 7.33Q190.61 6.97 190.72 6.51L190.72 6.51Q190.08 6.73 189.52 7.01Q188.97 7.28 188.61 7.59L188.61 7.59Q188.48 7.50 188.35 7.34Q188.22 7.17 188.10 6.96Q187.99 6.76 187.91 6.55Q187.82 6.34 187.81 6.17L187.81 6.17Q188.23 5.89 188.84 5.66Q189.45 5.42 190.13 5.24Q190.82 5.07 191.53 4.97Q192.25 4.87 192.86 4.87L192.86 4.87Q194.54 4.87 195.47 5.56Q196.39 6.26 196.39 7.46ZM192.81 6.02L192.98 6.29Q192.88 6.41 192.67 6.79Q192.46 7.17 192.18 7.69Q191.91 8.22 191.61 8.83Q191.31 9.45 191.03 10.05L191.03 10.05Q192.08 10.05 192.96 9.86Q193.84 9.66 194.49 9.30Q195.13 8.95 195.49 8.46Q195.85 7.98 195.85 7.39L195.85 7.39Q195.85 6.69 195.34 6.32Q194.84 5.95 193.79 5.95L193.79 5.95Q193.55 5.95 193.31 5.97Q193.07 5.99 192.81 6.02L192.81 6.02ZM209.22 9.21L209.22 9.21Q209.68 9.21 209.94 9.46Q210.20 9.72 210.20 10.16L210.20 10.16Q210.20 10.28 210.17 10.39Q210.15 10.51 210.13 10.60L210.13 10.60Q209.94 10.57 209.72 10.55Q209.50 10.53 209.19 10.53L209.19 10.53Q208.59 10.53 207.97 10.63Q207.35 10.74 206.79 10.81L206.79 10.81Q206.47 11.55 206.21 12.24Q205.94 12.94 205.75 13.51Q205.56 14.08 205.46 14.50Q205.35 14.92 205.34 15.13L205.34 15.13Q206.47 14.90 207.63 14.73Q208.78 14.56 210.06 14.48L210.06 14.48Q210.21 14.71 210.31 14.99Q210.42 15.27 210.42 15.60L210.42 15.60Q210.42 15.68 210.42 15.78Q210.42 15.88 210.39 15.97L210.39 15.97Q210.00 15.96 209.57 15.95Q209.13 15.95 208.43 15.95L208.43 15.95Q207.97 15.95 207.56 15.97Q207.14 15.99 206.72 16.03Q206.30 16.07 205.83 16.14Q205.37 16.21 204.78 16.31L204.78 16.31Q204.13 16.06 203.53 15.08L203.53 15.08Q203.77 14.57 204.20 13.54Q204.62 12.52 205.28 10.79L205.28 10.79Q204.65 10.60 204.46 10.09L204.46 10.09Q204.53 10.02 204.86 9.92Q205.20 9.81 205.69 9.70L205.69 9.70Q205.90 9.16 206.04 8.75Q206.19 8.34 206.30 7.99Q206.42 7.63 206.51 7.29Q206.60 6.94 206.68 6.54L206.68 6.54Q206.19 6.51 205.91 6.27Q205.63 6.02 205.63 5.63L205.63 5.63Q205.63 5.52 205.67 5.36Q205.70 5.21 205.74 5.10L205.74 5.10Q206.02 5.14 206.28 5.15Q206.54 5.17 206.96 5.17L206.96 5.17Q207.84 5.17 208.61 5.12Q209.38 5.07 210.01 5.01Q210.63 4.96 211.08 4.91Q211.53 4.86 211.76 4.86L211.76 4.86Q212.09 4.86 212.34 5.19Q212.59 5.53 212.72 6.15L212.72 6.15Q212.28 6.10 212.01 6.09Q211.74 6.08 211.53 6.08L211.53 6.08Q210.76 6.08 210.12 6.15Q209.48 6.23 208.89 6.31L208.89 6.31Q208.81 6.44 208.70 6.64Q208.60 6.83 208.43 7.18Q208.26 7.53 208.02 8.06Q207.77 8.60 207.42 9.39L207.42 9.39Q207.96 9.31 208.42 9.26Q208.89 9.21 209.22 9.21ZM219.59 16.24L219.59 16.24Q218.92 16.04 218.66 15.85Q218.40 15.65 218.40 15.36L218.40 15.36Q218.40 15.13 218.53 14.73Q218.65 14.32 218.90 13.77Q219.14 13.22 219.48 12.54Q219.83 11.87 220.26 11.10L220.26 11.10Q219.90 11.09 219.61 11.08Q219.32 11.07 219.14 11.07L219.14 11.07Q219.23 10.86 219.62 10.71Q220.01 10.56 220.65 10.44L220.65 10.44Q221.20 9.53 221.82 8.71Q222.45 7.88 223.08 7.19Q223.71 6.50 224.34 5.97Q224.97 5.45 225.54 5.14L225.54 5.14Q225.55 5.04 225.56 4.97Q225.57 4.90 225.57 4.87L225.57 4.87Q225.76 4.87 226.09 4.97Q226.42 5.07 226.74 5.21Q227.05 5.35 227.30 5.49Q227.54 5.64 227.57 5.74L227.57 5.74Q227.11 6.55 226.66 8.17Q226.21 9.79 225.92 12.04L225.92 12.04Q225.85 12.60 225.80 13.31Q225.75 14.03 225.75 14.91L225.75 14.91Q225.75 15.22 225.75 15.54Q225.75 15.86 225.78 16.21L225.78 16.21Q225.75 16.23 225.72 16.23Q225.69 16.23 225.61 16.23L225.61 16.23Q225.41 16.23 225.16 16.16Q224.90 16.10 224.65 16.01Q224.41 15.92 224.23 15.81Q224.06 15.69 224.01 15.61L224.01 15.61Q224 15.43 224 15.25Q224 15.08 224 14.88L224 14.88Q224 14.01 224.06 13.12Q224.13 12.22 224.28 11.27L224.28 11.27Q224.08 11.26 223.76 11.23Q223.44 11.21 223.04 11.20Q222.64 11.19 222.19 11.16Q221.73 11.14 221.30 11.13L221.30 11.13Q220.96 11.76 220.67 12.38Q220.37 13.01 220.16 13.64L220.16 13.64Q219.93 14.31 219.78 14.98Q219.63 15.65 219.59 16.24ZM224.99 7.83L224.99 7.83Q225.05 7.63 225.13 7.29Q225.20 6.94 225.27 6.57L225.27 6.57Q224.92 6.69 224.50 7.03Q224.07 7.36 223.61 7.86Q223.16 8.36 222.69 8.98Q222.22 9.60 221.79 10.30L221.79 10.30Q222.96 10.21 224.46 10.18L224.46 10.18Q224.57 9.59 224.71 9.01Q224.84 8.43 224.99 7.83ZM237.15 6.69L237.15 6.69Q236.59 6.69 236.28 6.38Q235.98 6.06 235.98 5.61L235.98 5.61Q235.98 5.50 236.02 5.35Q236.05 5.19 236.11 5.08L236.11 5.08Q236.29 5.17 236.65 5.20Q237.01 5.24 237.48 5.24L237.48 5.24Q238.20 5.24 239.10 5.17Q240.00 5.11 240.83 5.04Q241.65 4.97 242.28 4.91Q242.91 4.84 243.10 4.84L243.10 4.84Q243.61 4.84 243.84 5.23Q244.08 5.61 244.19 6.26L244.19 6.26Q243.82 6.23 243.47 6.21Q243.11 6.19 242.86 6.19L242.86 6.19Q242.41 6.19 241.95 6.22Q241.50 6.24 241.04 6.30L241.04 6.30Q240.84 6.71 240.60 7.26Q240.37 7.81 240.13 8.41Q239.90 9.02 239.69 9.61Q239.48 10.21 239.33 10.68L239.33 10.68Q239.02 11.61 238.79 12.39Q238.56 13.17 238.38 13.85Q238.21 14.53 238.08 15.15Q237.96 15.76 237.86 16.35L237.86 16.35Q236.92 16.21 236.29 15.18L236.29 15.18Q236.40 14.74 236.56 14.23Q236.73 13.72 236.94 13.07Q237.16 12.42 237.45 11.59Q237.75 10.77 238.13 9.72L238.13 9.72Q238.27 9.32 238.42 8.90Q238.57 8.47 238.72 8.05Q238.87 7.63 238.99 7.24Q239.11 6.85 239.19 6.52L239.19 6.52Q238.60 6.59 238.08 6.64Q237.55 6.69 237.15 6.69ZM250.03 14.38L250.03 14.38Q250.03 13.87 250.19 13.07Q250.35 12.26 250.61 11.33Q250.87 10.40 251.20 9.43Q251.54 8.46 251.89 7.60Q252.24 6.75 252.57 6.10Q252.91 5.46 253.18 5.18L253.18 5.18Q253.32 5.19 253.55 5.29Q253.78 5.38 254.02 5.50Q254.25 5.63 254.45 5.78Q254.65 5.92 254.70 6.05L254.70 6.05Q254.30 6.41 253.90 7.15Q253.50 7.88 253.13 8.82Q252.76 9.76 252.43 10.80Q252.11 11.84 251.87 12.82Q251.64 13.80 251.50 14.64Q251.37 15.48 251.37 16.00L251.37 16.00Q251.37 16.24 251.41 16.30L251.41 16.30Q251.10 16.28 250.96 16.19Q250.82 16.10 250.75 16.00Q250.67 15.89 250.61 15.79Q250.54 15.68 250.42 15.62L250.42 15.62Q250.32 15.58 250.25 15.43Q250.18 15.27 250.13 15.09Q250.08 14.90 250.05 14.70Q250.03 14.50 250.03 14.38ZM265.47 16.07L265.47 16.07Q265.15 16.24 264.78 16.24L264.78 16.24Q264.33 16.18 263.92 16.02Q263.51 15.85 263.31 15.61L263.31 15.61Q263.20 14.92 263.13 14.35Q263.06 13.78 263.02 13.27Q262.98 12.75 262.96 12.29Q262.95 11.82 262.95 11.34L262.95 11.34Q262.95 10.71 262.96 10.01Q262.98 9.31 263.00 8.52Q263.02 7.73 263.03 6.82Q263.05 5.92 263.05 4.86L263.05 4.86Q263.23 4.86 263.59 4.96Q263.96 5.07 264.31 5.21Q264.67 5.35 264.95 5.49Q265.23 5.64 265.26 5.74L265.26 5.74Q265.12 6.13 265.01 6.76Q264.91 7.39 264.84 8.16Q264.78 8.93 264.75 9.79Q264.73 10.64 264.73 11.48L264.73 11.48Q264.73 12.11 264.74 12.61Q264.75 13.10 264.77 13.50Q264.80 13.90 264.84 14.25Q264.88 14.59 264.94 14.92L264.94 14.92Q265.33 13.73 265.80 12.54Q266.27 11.35 266.76 10.25Q267.26 9.16 267.75 8.20Q268.24 7.25 268.68 6.54Q269.12 5.84 269.47 5.43Q269.82 5.01 270.05 4.98L270.05 4.98Q270.20 5.01 270.38 5.10Q270.55 5.19 270.70 5.32Q270.86 5.45 270.98 5.60Q271.11 5.75 271.18 5.91L271.18 5.91Q270.66 6.09 270.07 6.76Q269.47 7.43 268.87 8.38Q268.27 9.32 267.70 10.44Q267.13 11.55 266.68 12.61Q266.22 13.68 265.90 14.60Q265.58 15.53 265.47 16.07ZM277.07 14.38L277.07 14.38Q277.07 13.87 277.23 13.07Q277.40 12.26 277.65 11.33Q277.91 10.40 278.25 9.43Q278.59 8.46 278.94 7.60Q279.29 6.75 279.62 6.10Q279.96 5.46 280.22 5.18L280.22 5.18Q280.36 5.19 280.59 5.29Q280.83 5.38 281.06 5.50Q281.30 5.63 281.50 5.78Q281.69 5.92 281.75 6.05L281.75 6.05Q281.34 6.41 280.94 7.15Q280.55 7.88 280.17 8.82Q279.80 9.76 279.48 10.80Q279.16 11.84 278.92 12.82Q278.68 13.80 278.55 14.64Q278.42 15.48 278.42 16.00L278.42 16.00Q278.42 16.24 278.46 16.30L278.46 16.30Q278.15 16.28 278.01 16.19Q277.87 16.10 277.79 16.00Q277.72 15.89 277.65 15.79Q277.59 15.68 277.47 15.62L277.47 15.62Q277.37 15.58 277.30 15.43Q277.23 15.27 277.18 15.09Q277.13 14.90 277.10 14.70Q277.07 14.50 277.07 14.38ZM290.84 6.69L290.84 6.69Q290.28 6.69 289.97 6.38Q289.67 6.06 289.67 5.61L289.67 5.61Q289.67 5.50 289.71 5.35Q289.74 5.19 289.80 5.08L289.80 5.08Q289.98 5.17 290.34 5.20Q290.70 5.24 291.17 5.24L291.17 5.24Q291.89 5.24 292.79 5.17Q293.69 5.11 294.52 5.04Q295.34 4.97 295.97 4.91Q296.60 4.84 296.79 4.84L296.79 4.84Q297.30 4.84 297.53 5.23Q297.77 5.61 297.88 6.26L297.88 6.26Q297.51 6.23 297.16 6.21Q296.80 6.19 296.55 6.19L296.55 6.19Q296.10 6.19 295.64 6.22Q295.19 6.24 294.73 6.30L294.73 6.30Q294.53 6.71 294.29 7.26Q294.06 7.81 293.82 8.41Q293.59 9.02 293.38 9.61Q293.17 10.21 293.02 10.68L293.02 10.68Q292.71 11.61 292.48 12.39Q292.25 13.17 292.07 13.85Q291.90 14.53 291.77 15.15Q291.65 15.76 291.55 16.35L291.55 16.35Q290.61 16.21 289.98 15.18L289.98 15.18Q290.09 14.74 290.25 14.23Q290.42 13.72 290.63 13.07Q290.85 12.42 291.14 11.59Q291.44 10.77 291.82 9.72L291.82 9.72Q291.96 9.32 292.11 8.90Q292.26 8.47 292.41 8.05Q292.56 7.63 292.68 7.24Q292.80 6.85 292.88 6.52L292.88 6.52Q292.29 6.59 291.77 6.64Q291.24 6.69 290.84 6.69ZM308.46 10.35L308.46 10.35Q309.51 9.20 310.34 7.91Q311.18 6.62 311.89 5.01L311.89 5.01Q312.26 5.05 312.59 5.21Q312.93 5.36 313.12 5.56L313.12 5.56Q312.35 6.48 311.73 7.24Q311.11 7.99 310.59 8.66Q310.07 9.32 309.63 9.93Q309.19 10.54 308.77 11.16L308.77 11.16Q308.56 11.87 308.38 12.60Q308.20 13.33 308.06 13.99Q307.92 14.66 307.84 15.22Q307.76 15.79 307.76 16.20L307.76 16.20Q307.61 16.20 307.27 16.14Q306.94 16.07 306.59 15.99Q306.24 15.90 305.95 15.82Q305.66 15.74 305.61 15.68L305.61 15.68Q305.83 15.30 306.05 14.75Q306.26 14.20 306.47 13.59Q306.68 12.98 306.88 12.36Q307.08 11.73 307.24 11.20L307.24 11.20Q306.89 10.11 306.56 9.15Q306.24 8.19 305.93 7.41Q305.62 6.64 305.34 6.08Q305.06 5.52 304.81 5.22L304.81 5.22Q304.95 5.17 305.23 5.11Q305.52 5.05 305.86 5.00Q306.21 4.94 306.56 4.91Q306.92 4.87 307.20 4.86L307.20 4.86Q307.20 5.21 307.26 5.71Q307.33 6.22 307.43 6.79Q307.54 7.36 307.68 7.95Q307.82 8.54 307.96 9.03Q308.10 9.52 308.23 9.88Q308.36 10.23 308.46 10.35ZM316.95 17.54L316.95 17.54Q316.86 17.47 316.79 17.31Q316.72 17.15 316.72 17.01L316.72 17.01Q317.42 16.41 317.72 15.86Q318.02 15.32 318.02 14.67L318.02 14.67Q318.02 14.25 317.99 13.95Q317.95 13.65 317.86 13.26L317.86 13.26Q318.21 13.29 318.55 13.38Q318.89 13.47 319.16 13.60Q319.44 13.73 319.62 13.91Q319.80 14.08 319.84 14.25L319.84 14.25Q319.19 16.58 316.95 17.54ZM345.27 4.98L345.27 4.98Q345.53 5.10 345.81 5.27Q346.09 5.45 346.33 5.63Q346.57 5.81 346.73 5.98Q346.89 6.16 346.91 6.27L346.91 6.27Q346.67 6.22 346.43 6.20Q346.19 6.17 346.00 6.17L346.00 6.17Q345.37 6.17 344.74 6.48Q344.12 6.79 343.56 7.32Q343 7.85 342.52 8.57Q342.05 9.28 341.70 10.09Q341.36 10.91 341.17 11.77Q340.97 12.64 340.97 13.48L340.97 13.48Q340.97 14.57 341.33 15.11Q341.70 15.64 342.40 15.64L342.40 15.64Q342.73 15.64 343.13 15.51Q343.52 15.37 343.92 15.13Q344.33 14.90 344.72 14.56Q345.11 14.22 345.45 13.82L345.45 13.82Q345.94 13.23 346.33 12.48Q346.72 11.73 347.00 10.89Q347.27 10.05 347.42 9.16Q347.56 8.27 347.56 7.42L347.56 7.42Q347.56 7.08 347.55 6.85Q347.54 6.62 347.51 6.46Q347.49 6.30 347.48 6.20Q347.47 6.10 347.45 6.03L347.45 6.03Q347.62 6.12 347.82 6.24Q348.03 6.36 348.20 6.59Q348.38 6.82 348.50 7.20Q348.61 7.57 348.61 8.18L348.61 8.18Q348.61 9.16 348.38 10.10Q348.15 11.05 347.74 11.90Q347.33 12.75 346.77 13.50Q346.21 14.24 345.56 14.80L345.56 14.80Q344.72 15.54 343.77 15.95Q342.82 16.35 341.94 16.35L341.94 16.35Q340.65 16.35 339.97 15.53Q339.29 14.71 339.29 13.12L339.29 13.12Q339.29 12.26 339.48 11.31Q339.67 10.36 340.01 9.44Q340.35 8.51 340.83 7.68Q341.31 6.85 341.87 6.21Q342.44 5.57 343.09 5.19Q343.74 4.82 344.43 4.82L344.43 4.82Q344.65 4.82 344.85 4.85Q345.04 4.89 345.27 4.98ZM357.18 16.24L357.18 16.24Q356.38 16.00 356.10 15.79Q355.82 15.57 355.82 15.19L355.82 15.19Q355.82 14.77 356.02 14.01Q356.22 13.24 356.53 12.31Q356.85 11.37 357.25 10.35Q357.66 9.32 358.08 8.39Q358.50 7.45 358.90 6.67Q359.30 5.89 359.60 5.46L359.60 5.46L359.51 4.87Q359.70 4.87 360.05 4.97Q360.40 5.07 360.76 5.21Q361.12 5.35 361.39 5.49Q361.66 5.64 361.69 5.74L361.69 5.74Q361.62 6.08 361.58 6.76Q361.54 7.43 361.54 8.20L361.54 8.20Q361.54 9.73 361.65 11.19Q361.77 12.66 362.21 14.17L362.21 14.17Q362.43 13.05 362.69 11.94Q362.95 10.82 363.23 9.81Q363.51 8.79 363.79 7.92Q364.07 7.06 364.33 6.40Q364.59 5.75 364.81 5.38Q365.04 5.01 365.22 4.98L365.22 4.98Q365.37 5.01 365.55 5.10Q365.74 5.19 365.90 5.32Q366.07 5.45 366.21 5.60Q366.35 5.75 366.44 5.91L366.44 5.91Q365.99 6.09 365.55 6.76Q365.11 7.43 364.71 8.39Q364.31 9.35 363.96 10.47Q363.62 11.59 363.36 12.68Q363.10 13.76 362.96 14.69Q362.81 15.61 362.80 16.17L362.80 16.17Q362.80 16.20 362.81 16.21L362.81 16.21Q362.77 16.23 362.72 16.23Q362.67 16.23 362.63 16.23L362.63 16.23Q361.98 16.23 361.49 16.07Q360.99 15.90 360.84 15.61L360.84 15.61Q360.54 14.43 360.35 13.34Q360.15 12.25 360.02 11.16Q359.88 10.07 359.81 8.95Q359.73 7.84 359.69 6.62L359.69 6.62Q359.42 7.04 359.13 7.72Q358.83 8.40 358.55 9.21Q358.27 10.02 358.01 10.92Q357.76 11.82 357.56 12.67Q357.36 13.52 357.25 14.29Q357.14 15.05 357.14 15.61L357.14 15.61Q357.14 15.90 357.15 16.03Q357.15 16.16 357.18 16.24ZM378.28 9.21L378.28 9.21Q378.74 9.21 379.00 9.46Q379.26 9.72 379.26 10.16L379.26 10.16Q379.26 10.28 379.24 10.39Q379.22 10.51 379.19 10.60L379.19 10.60Q379.01 10.57 378.78 10.55Q378.56 10.53 378.25 10.53L378.25 10.53Q377.65 10.53 377.03 10.63Q376.42 10.74 375.86 10.81L375.86 10.81Q375.54 11.55 375.27 12.24Q375.00 12.94 374.81 13.51Q374.63 14.08 374.52 14.50Q374.42 14.92 374.40 15.13L374.40 15.13Q375.54 14.90 376.69 14.73Q377.85 14.56 379.12 14.48L379.12 14.48Q379.27 14.71 379.38 14.99Q379.48 15.27 379.48 15.60L379.48 15.60Q379.48 15.68 379.48 15.78Q379.48 15.88 379.46 15.97L379.46 15.97Q379.06 15.96 378.63 15.95Q378.20 15.95 377.50 15.95L377.50 15.95Q377.03 15.95 376.62 15.97Q376.21 15.99 375.79 16.03Q375.37 16.07 374.90 16.14Q374.43 16.21 373.84 16.31L373.84 16.31Q373.20 16.06 372.60 15.08L372.60 15.08Q372.83 14.57 373.26 13.54Q373.69 12.52 374.35 10.79L374.35 10.79Q373.72 10.60 373.52 10.09L373.52 10.09Q373.59 10.02 373.93 9.92Q374.26 9.81 374.75 9.70L374.75 9.70Q374.96 9.16 375.11 8.75Q375.26 8.34 375.37 7.99Q375.48 7.63 375.57 7.29Q375.66 6.94 375.75 6.54L375.75 6.54Q375.26 6.51 374.98 6.27Q374.70 6.02 374.70 5.63L374.70 5.63Q374.70 5.52 374.73 5.36Q374.77 5.21 374.81 5.10L374.81 5.10Q375.09 5.14 375.35 5.15Q375.61 5.17 376.03 5.17L376.03 5.17Q376.91 5.17 377.68 5.12Q378.45 5.07 379.07 5.01Q379.69 4.96 380.14 4.91Q380.59 4.86 380.83 4.86L380.83 4.86Q381.15 4.86 381.40 5.19Q381.65 5.53 381.78 6.15L381.78 6.15Q381.35 6.10 381.07 6.09Q380.80 6.08 380.59 6.08L380.59 6.08Q379.82 6.08 379.18 6.15Q378.55 6.23 377.96 6.31L377.96 6.31Q377.87 6.44 377.77 6.64Q377.66 6.83 377.50 7.18Q377.33 7.53 377.08 8.06Q376.84 8.60 376.49 9.39L376.49 9.39Q377.02 9.31 377.49 9.26Q377.96 9.21 378.28 9.21ZM404.14 16.21L404.14 16.21Q404.11 16.23 404.08 16.23Q404.05 16.23 403.97 16.23L403.97 16.23Q403.77 16.23 403.51 16.16Q403.26 16.10 403.01 16.01Q402.77 15.92 402.59 15.81Q402.42 15.69 402.37 15.61L402.37 15.61Q402.36 15.41 402.36 15.20Q402.36 14.99 402.36 14.80L402.36 14.80Q402.36 13.23 402.59 11.52Q402.82 9.81 403.35 7.83L403.35 7.83Q403.41 7.63 403.47 7.33Q403.54 7.03 403.61 6.68L403.61 6.68Q403.27 6.94 402.81 7.53Q402.35 8.11 401.83 8.90Q401.32 9.69 400.81 10.63Q400.30 11.58 399.88 12.55Q399.46 13.52 399.16 14.48Q398.86 15.43 398.79 16.24L398.79 16.24Q398.12 16.04 397.86 15.85Q397.60 15.65 397.60 15.37L397.60 15.37Q397.60 15.12 397.75 14.66Q397.91 14.20 398.19 13.57Q398.47 12.94 398.87 12.16Q399.28 11.38 399.77 10.49L399.77 10.49Q400.33 9.46 400.87 8.57Q401.41 7.67 401.93 6.94Q402.44 6.22 402.94 5.68Q403.44 5.15 403.93 4.87L403.93 4.87Q404.12 4.87 404.45 4.97Q404.78 5.07 405.10 5.21Q405.41 5.35 405.66 5.49Q405.90 5.64 405.93 5.74L405.93 5.74Q405.73 6.13 405.47 6.92Q405.20 7.70 404.93 8.69Q404.66 9.69 404.41 10.80Q404.17 11.91 404.03 12.94L404.03 12.94Q404.35 12.17 404.78 11.33Q405.20 10.50 405.68 9.68Q406.15 8.86 406.65 8.09Q407.15 7.32 407.62 6.69Q408.10 6.05 408.51 5.57Q408.93 5.10 409.25 4.87L409.25 4.87Q409.44 4.87 409.77 4.97Q410.10 5.07 410.42 5.21Q410.73 5.35 410.98 5.49Q411.22 5.64 411.25 5.74L411.25 5.74Q410.80 6.54 410.47 7.69Q410.13 8.83 409.90 10.09Q409.67 11.35 409.55 12.59Q409.43 13.83 409.43 14.81L409.43 14.81Q409.43 15.13 409.43 15.48Q409.43 15.83 409.46 16.21L409.46 16.21Q409.26 16.21 408.99 16.16Q408.72 16.11 408.46 16.03Q408.20 15.95 407.99 15.84Q407.78 15.74 407.69 15.61L407.69 15.61Q407.68 15.41 407.68 15.20Q407.68 14.99 407.68 14.80L407.68 14.80Q407.68 13.23 407.91 11.52Q408.14 9.81 408.67 7.83L408.67 7.83Q408.73 7.63 408.80 7.29Q408.87 6.96 408.94 6.59L408.94 6.59Q408.55 6.79 408.05 7.34Q407.55 7.90 407.04 8.69Q406.53 9.48 406.04 10.44Q405.54 11.41 405.14 12.41Q404.74 13.41 404.47 14.40Q404.19 15.39 404.14 16.21ZM423.78 5.75L423.78 5.75Q423.16 6.58 422.66 7.57Q422.16 8.57 421.80 9.61Q421.44 10.65 421.25 11.67Q421.06 12.68 421.06 13.57L421.06 13.57Q421.06 14.66 421.39 15.15Q421.71 15.64 422.49 15.64L422.49 15.64Q423.40 15.64 424.09 15.00Q424.77 14.36 425.38 13.24L425.38 13.24Q425.77 12.52 426.05 11.65Q426.33 10.78 426.50 9.86Q426.68 8.95 426.76 8.02Q426.85 7.08 426.85 6.23L426.85 6.23Q426.85 5.68 426.83 5.43Q426.82 5.18 426.79 5.03L426.79 5.03Q426.83 5.03 427 5.05Q427.17 5.08 427.38 5.12Q427.60 5.17 427.82 5.24Q428.04 5.31 428.19 5.39L428.19 5.39Q428.12 6.45 427.93 7.59Q427.74 8.72 427.43 9.83Q427.13 10.93 426.72 11.96Q426.31 12.98 425.81 13.79L425.81 13.79Q425.07 14.99 424.14 15.67Q423.22 16.35 421.96 16.35L421.96 16.35Q420.67 16.35 419.96 15.60Q419.24 14.85 419.24 13.33L419.24 13.33Q419.24 12.45 419.44 11.33Q419.64 10.22 419.97 9.07Q420.29 7.91 420.73 6.81Q421.16 5.71 421.64 4.84L421.64 4.84Q421.88 4.86 422.20 4.94Q422.52 5.03 422.83 5.16Q423.14 5.29 423.39 5.45Q423.65 5.61 423.78 5.75ZM444.29 5.74L444.29 5.74Q444.33 5.98 444.35 6.07Q444.37 6.16 444.37 6.31L444.37 6.31Q444.37 6.78 444.17 7.18Q443.97 7.57 443.62 7.74L443.62 7.74Q443.34 7.36 442.93 7.09Q442.53 6.82 442.04 6.64Q441.56 6.47 441.04 6.38Q440.52 6.30 440.03 6.30L440.03 6.30Q439.54 6.30 439.12 6.38Q438.69 6.45 438.36 6.59Q438.03 6.72 437.84 6.92Q437.65 7.11 437.65 7.36L437.65 7.36Q437.70 7.67 438.03 7.99Q438.37 8.30 438.86 8.60Q439.35 8.90 439.94 9.20Q440.54 9.49 441.11 9.76L441.11 9.76Q441.83 10.09 442.34 10.38Q442.86 10.67 443.20 11.01Q443.53 11.35 443.70 11.79Q443.87 12.22 443.87 12.84L443.87 12.84Q443.87 13.55 443.63 14.18Q443.39 14.80 442.94 15.26Q442.48 15.72 441.84 15.98Q441.20 16.24 440.40 16.24L440.40 16.24Q439.61 16.24 438.70 16.00Q437.79 15.76 437.00 15.35Q436.21 14.94 435.69 14.40Q435.16 13.86 435.16 13.26L435.16 13.26Q435.16 12.98 435.32 12.54Q435.48 12.11 435.90 11.63L435.90 11.63Q435.95 12.05 436.36 12.63Q436.77 13.20 437.60 13.69L437.60 13.69Q438.37 14.14 439.19 14.34Q440.01 14.55 440.72 14.55L440.72 14.55Q441.50 14.55 441.99 14.35Q442.48 14.15 442.76 13.88Q443.04 13.61 443.16 13.33Q443.27 13.05 443.28 12.88L443.28 12.88Q443.27 12.60 443.02 12.34Q442.78 12.08 442.37 11.84Q441.95 11.59 441.41 11.34Q440.86 11.09 440.27 10.84L440.27 10.84Q439.39 10.44 438.75 10.10Q438.12 9.76 437.70 9.40Q437.29 9.04 437.10 8.65Q436.91 8.26 436.91 7.76L436.91 7.76Q436.91 6.97 437.39 6.27Q437.86 5.57 438.76 5.21L438.76 5.21Q439.21 5.01 439.72 4.93Q440.23 4.84 440.72 4.84L440.72 4.84Q441.64 4.84 442.53 5.10Q443.41 5.35 444.29 5.74ZM457.77 9.21L457.77 9.21Q458.23 9.21 458.49 9.46Q458.75 9.72 458.75 10.16L458.75 10.16Q458.75 10.28 458.73 10.39Q458.71 10.51 458.68 10.60L458.68 10.60Q458.50 10.57 458.28 10.55Q458.05 10.53 457.74 10.53L457.74 10.53Q457.14 10.53 456.53 10.63Q455.91 10.74 455.35 10.81L455.35 10.81Q455.03 11.55 454.76 12.24Q454.50 12.94 454.31 13.51Q454.12 14.08 454.01 14.50Q453.91 14.92 453.89 15.13L453.89 15.13Q455.03 14.90 456.18 14.73Q457.34 14.56 458.61 14.48L458.61 14.48Q458.77 14.71 458.87 14.99Q458.98 15.27 458.98 15.60L458.98 15.60Q458.98 15.68 458.98 15.78Q458.98 15.88 458.95 15.97L458.95 15.97Q458.56 15.96 458.12 15.95Q457.69 15.95 456.99 15.95L456.99 15.95Q456.53 15.95 456.11 15.97Q455.70 15.99 455.28 16.03Q454.86 16.07 454.39 16.14Q453.92 16.21 453.33 16.31L453.33 16.31Q452.69 16.06 452.09 15.08L452.09 15.08Q452.33 14.57 452.75 13.54Q453.18 12.52 453.84 10.79L453.84 10.79Q453.21 10.60 453.01 10.09L453.01 10.09Q453.08 10.02 453.42 9.92Q453.75 9.81 454.24 9.70L454.24 9.70Q454.45 9.16 454.60 8.75Q454.75 8.34 454.86 7.99Q454.97 7.63 455.06 7.29Q455.15 6.94 455.24 6.54L455.24 6.54Q454.75 6.51 454.47 6.27Q454.19 6.02 454.19 5.63L454.19 5.63Q454.19 5.52 454.22 5.36Q454.26 5.21 454.30 5.10L454.30 5.10Q454.58 5.14 454.84 5.15Q455.10 5.17 455.52 5.17L455.52 5.17Q456.40 5.17 457.17 5.12Q457.94 5.07 458.56 5.01Q459.19 4.96 459.63 4.91Q460.08 4.86 460.32 4.86L460.32 4.86Q460.64 4.86 460.89 5.19Q461.15 5.53 461.27 6.15L461.27 6.15Q460.84 6.10 460.56 6.09Q460.29 6.08 460.08 6.08L460.08 6.08Q459.31 6.08 458.67 6.15Q458.04 6.23 457.45 6.31L457.45 6.31Q457.37 6.44 457.26 6.64Q457.16 6.83 456.99 7.18Q456.82 7.53 456.57 8.06Q456.33 8.60 455.98 9.39L455.98 9.39Q456.51 9.31 456.98 9.26Q457.45 9.21 457.77 9.21ZM478.48 16.24L478.48 16.24Q477.81 16.04 477.55 15.85Q477.29 15.65 477.29 15.36L477.29 15.36Q477.29 15.13 477.41 14.73Q477.54 14.32 477.78 13.77Q478.03 13.22 478.37 12.54Q478.72 11.87 479.15 11.10L479.15 11.10Q478.79 11.09 478.50 11.08Q478.21 11.07 478.03 11.07L478.03 11.07Q478.11 10.86 478.51 10.71Q478.90 10.56 479.54 10.44L479.54 10.44Q480.09 9.53 480.71 8.71Q481.33 7.88 481.96 7.19Q482.59 6.50 483.22 5.97Q483.85 5.45 484.43 5.14L484.43 5.14Q484.44 5.04 484.45 4.97Q484.46 4.90 484.46 4.87L484.46 4.87Q484.65 4.87 484.98 4.97Q485.31 5.07 485.62 5.21Q485.94 5.35 486.18 5.49Q486.43 5.64 486.46 5.74L486.46 5.74Q486.00 6.55 485.55 8.17Q485.10 9.79 484.81 12.04L484.81 12.04Q484.74 12.60 484.69 13.31Q484.64 14.03 484.64 14.91L484.64 14.91Q484.64 15.22 484.64 15.54Q484.64 15.86 484.67 16.21L484.67 16.21Q484.64 16.23 484.61 16.23Q484.58 16.23 484.50 16.23L484.50 16.23Q484.30 16.23 484.04 16.16Q483.78 16.10 483.54 16.01Q483.29 15.92 483.12 15.81Q482.94 15.69 482.90 15.61L482.90 15.61Q482.89 15.43 482.89 15.25Q482.89 15.08 482.89 14.88L482.89 14.88Q482.89 14.01 482.95 13.12Q483.01 12.22 483.17 11.27L483.17 11.27Q482.97 11.26 482.65 11.23Q482.33 11.21 481.93 11.20Q481.53 11.19 481.07 11.16Q480.62 11.14 480.19 11.13L480.19 11.13Q479.85 11.76 479.56 12.38Q479.26 13.01 479.05 13.64L479.05 13.64Q478.81 14.31 478.67 14.98Q478.52 15.65 478.48 16.24ZM483.88 7.83L483.88 7.83Q483.94 7.63 484.01 7.29Q484.09 6.94 484.16 6.57L484.16 6.57Q483.81 6.69 483.38 7.03Q482.96 7.36 482.50 7.86Q482.05 8.36 481.58 8.98Q481.11 9.60 480.68 10.30L480.68 10.30Q481.85 10.21 483.35 10.18L483.35 10.18Q483.46 9.59 483.59 9.01Q483.73 8.43 483.88 7.83ZM496.03 6.69L496.03 6.69Q495.47 6.69 495.17 6.38Q494.87 6.06 494.87 5.61L494.87 5.61Q494.87 5.50 494.91 5.35Q494.94 5.19 495.00 5.08L495.00 5.08Q495.18 5.17 495.54 5.20Q495.89 5.24 496.37 5.24L496.37 5.24Q497.08 5.24 497.99 5.17Q498.89 5.11 499.72 5.04Q500.54 4.97 501.17 4.91Q501.80 4.84 501.98 4.84L501.98 4.84Q502.50 4.84 502.73 5.23Q502.96 5.61 503.08 6.26L503.08 6.26Q502.71 6.23 502.35 6.21Q502.00 6.19 501.75 6.19L501.75 6.19Q501.30 6.19 500.84 6.22Q500.39 6.24 499.93 6.30L499.93 6.30Q499.73 6.71 499.49 7.26Q499.25 7.81 499.02 8.41Q498.79 9.02 498.58 9.61Q498.37 10.21 498.22 10.68L498.22 10.68Q497.91 11.61 497.68 12.39Q497.45 13.17 497.27 13.85Q497.10 14.53 496.97 15.15Q496.85 15.76 496.75 16.35L496.75 16.35Q495.81 16.21 495.18 15.18L495.18 15.18Q495.29 14.74 495.45 14.23Q495.61 13.72 495.83 13.07Q496.05 12.42 496.34 11.59Q496.64 10.77 497.01 9.72L497.01 9.72Q497.15 9.32 497.31 8.90Q497.46 8.47 497.61 8.05Q497.76 7.63 497.87 7.24Q497.99 6.85 498.08 6.52L498.08 6.52Q497.49 6.59 496.96 6.64Q496.44 6.69 496.03 6.69ZM519.46 16.24L519.46 16.24Q518.78 16.04 518.52 15.85Q518.27 15.65 518.27 15.36L518.27 15.36Q518.27 15.13 518.39 14.73Q518.52 14.32 518.76 13.77Q519.01 13.22 519.35 12.54Q519.69 11.87 520.13 11.10L520.13 11.10Q519.76 11.09 519.48 11.08Q519.19 11.07 519.01 11.07L519.01 11.07Q519.09 10.86 519.48 10.71Q519.88 10.56 520.52 10.44L520.52 10.44Q521.07 9.53 521.69 8.71Q522.31 7.88 522.94 7.19Q523.57 6.50 524.20 5.97Q524.83 5.45 525.41 5.14L525.41 5.14Q525.42 5.04 525.43 4.97Q525.43 4.90 525.43 4.87L525.43 4.87Q525.63 4.87 525.96 4.97Q526.29 5.07 526.60 5.21Q526.92 5.35 527.16 5.49Q527.41 5.64 527.44 5.74L527.44 5.74Q526.97 6.55 526.53 8.17Q526.08 9.79 525.78 12.04L525.78 12.04Q525.71 12.60 525.66 13.31Q525.62 14.03 525.62 14.91L525.62 14.91Q525.62 15.22 525.62 15.54Q525.62 15.86 525.64 16.21L525.64 16.21Q525.62 16.23 525.59 16.23Q525.56 16.23 525.48 16.23L525.48 16.23Q525.28 16.23 525.02 16.16Q524.76 16.10 524.52 16.01Q524.27 15.92 524.10 15.81Q523.92 15.69 523.88 15.61L523.88 15.61Q523.87 15.43 523.87 15.25Q523.87 15.08 523.87 14.88L523.87 14.88Q523.87 14.01 523.93 13.12Q523.99 12.22 524.15 11.27L524.15 11.27Q523.95 11.26 523.63 11.23Q523.31 11.21 522.91 11.20Q522.51 11.19 522.05 11.16Q521.60 11.14 521.16 11.13L521.16 11.13Q520.83 11.76 520.53 12.38Q520.24 13.01 520.03 13.64L520.03 13.64Q519.79 14.31 519.64 14.98Q519.50 15.65 519.46 16.24ZM524.86 7.83L524.86 7.83Q524.92 7.63 524.99 7.29Q525.07 6.94 525.14 6.57L525.14 6.57Q524.79 6.69 524.36 7.03Q523.94 7.36 523.48 7.86Q523.03 8.36 522.56 8.98Q522.09 9.60 521.65 10.30L521.65 10.30Q522.83 10.21 524.33 10.18L524.33 10.18Q524.44 9.59 524.57 9.01Q524.71 8.43 524.86 7.83ZM547.92 6.69L547.92 6.69Q547.36 6.69 547.06 6.38Q546.76 6.06 546.76 5.61L546.76 5.61Q546.76 5.50 546.79 5.35Q546.83 5.19 546.88 5.08L546.88 5.08Q547.06 5.17 547.42 5.20Q547.78 5.24 548.25 5.24L548.25 5.24Q548.97 5.24 549.87 5.17Q550.77 5.11 551.60 5.04Q552.43 4.97 553.06 4.91Q553.69 4.84 553.87 4.84L553.87 4.84Q554.39 4.84 554.62 5.23Q554.85 5.61 554.96 6.26L554.96 6.26Q554.60 6.23 554.24 6.21Q553.88 6.19 553.63 6.19L553.63 6.19Q553.18 6.19 552.73 6.22Q552.27 6.24 551.81 6.30L551.81 6.30Q551.61 6.71 551.38 7.26Q551.14 7.81 550.91 8.41Q550.68 9.02 550.47 9.61Q550.26 10.21 550.10 10.68L550.10 10.68Q549.79 11.61 549.56 12.39Q549.33 13.17 549.16 13.85Q548.98 14.53 548.86 15.15Q548.73 15.76 548.63 16.35L548.63 16.35Q547.69 16.21 547.06 15.18L547.06 15.18Q547.18 14.74 547.34 14.23Q547.50 13.72 547.71 13.07Q547.93 12.42 548.23 11.59Q548.52 10.77 548.90 9.72L548.90 9.72Q549.04 9.32 549.19 8.90Q549.35 8.47 549.49 8.05Q549.64 7.63 549.76 7.24Q549.88 6.85 549.96 6.52L549.96 6.52Q549.37 6.59 548.85 6.64Q548.32 6.69 547.92 6.69ZM560.80 14.38L560.80 14.38Q560.80 13.87 560.96 13.07Q561.12 12.26 561.38 11.33Q561.64 10.40 561.97 9.43Q562.31 8.46 562.66 7.60Q563.01 6.75 563.35 6.10Q563.68 5.46 563.95 5.18L563.95 5.18Q564.09 5.19 564.32 5.29Q564.55 5.38 564.79 5.50Q565.03 5.63 565.22 5.78Q565.42 5.92 565.47 6.05L565.47 6.05Q565.07 6.41 564.67 7.15Q564.27 7.88 563.90 8.82Q563.53 9.76 563.21 10.80Q562.88 11.84 562.65 12.82Q562.41 13.80 562.27 14.64Q562.14 15.48 562.14 16.00L562.14 16.00Q562.14 16.24 562.18 16.30L562.18 16.30Q561.88 16.28 561.74 16.19Q561.60 16.10 561.52 16.00Q561.44 15.89 561.38 15.79Q561.32 15.68 561.19 15.62L561.19 15.62Q561.09 15.58 561.02 15.43Q560.95 15.27 560.90 15.09Q560.85 14.90 560.83 14.70Q560.80 14.50 560.80 14.38ZM577.57 16.21L577.57 16.21Q577.54 16.23 577.51 16.23Q577.49 16.23 577.40 16.23L577.40 16.23Q577.21 16.23 576.95 16.16Q576.69 16.10 576.44 16.01Q576.20 15.92 576.02 15.81Q575.85 15.69 575.81 15.61L575.81 15.61Q575.79 15.41 575.79 15.20Q575.79 14.99 575.79 14.80L575.79 14.80Q575.79 13.23 576.02 11.52Q576.25 9.81 576.79 7.83L576.79 7.83Q576.84 7.63 576.90 7.33Q576.97 7.03 577.04 6.68L577.04 6.68Q576.70 6.94 576.24 7.53Q575.78 8.11 575.27 8.90Q574.76 9.69 574.24 10.63Q573.73 11.58 573.31 12.55Q572.89 13.52 572.59 14.48Q572.29 15.43 572.22 16.24L572.22 16.24Q571.55 16.04 571.29 15.85Q571.03 15.65 571.03 15.37L571.03 15.37Q571.03 15.12 571.19 14.66Q571.34 14.20 571.62 13.57Q571.90 12.94 572.31 12.16Q572.71 11.38 573.20 10.49L573.20 10.49Q573.76 9.46 574.30 8.57Q574.84 7.67 575.36 6.94Q575.88 6.22 576.37 5.68Q576.87 5.15 577.36 4.87L577.36 4.87Q577.56 4.87 577.88 4.97Q578.21 5.07 578.53 5.21Q578.84 5.35 579.09 5.49Q579.33 5.64 579.36 5.74L579.36 5.74Q579.17 6.13 578.90 6.92Q578.63 7.70 578.36 8.69Q578.09 9.69 577.84 10.80Q577.60 11.91 577.46 12.94L577.46 12.94Q577.78 12.17 578.21 11.33Q578.63 10.50 579.11 9.68Q579.59 8.86 580.08 8.09Q580.58 7.32 581.06 6.69Q581.53 6.05 581.94 5.57Q582.36 5.10 582.68 4.87L582.68 4.87Q582.88 4.87 583.20 4.97Q583.53 5.07 583.85 5.21Q584.16 5.35 584.41 5.49Q584.65 5.64 584.68 5.74L584.68 5.74Q584.23 6.54 583.90 7.69Q583.56 8.83 583.33 10.09Q583.10 11.35 582.98 12.59Q582.86 13.83 582.86 14.81L582.86 14.81Q582.86 15.13 582.86 15.48Q582.86 15.83 582.89 16.21L582.89 16.21Q582.69 16.21 582.42 16.16Q582.15 16.11 581.89 16.03Q581.63 15.95 581.42 15.84Q581.21 15.74 581.13 15.61L581.13 15.61Q581.11 15.41 581.11 15.20Q581.11 14.99 581.11 14.80L581.11 14.80Q581.11 13.23 581.34 11.52Q581.57 9.81 582.11 7.83L582.11 7.83Q582.16 7.63 582.23 7.29Q582.30 6.96 582.37 6.59L582.37 6.59Q581.98 6.79 581.48 7.34Q580.99 7.90 580.47 8.69Q579.96 9.48 579.47 10.44Q578.97 11.41 578.57 12.41Q578.17 13.41 577.90 14.40Q577.63 15.39 577.57 16.21ZM597.63 9.21L597.63 9.21Q598.09 9.21 598.35 9.46Q598.61 9.72 598.61 10.16L598.61 10.16Q598.61 10.28 598.59 10.39Q598.57 10.51 598.54 10.60L598.54 10.60Q598.36 10.57 598.14 10.55Q597.91 10.53 597.60 10.53L597.60 10.53Q597.00 10.53 596.39 10.63Q595.77 10.74 595.21 10.81L595.21 10.81Q594.89 11.55 594.62 12.24Q594.36 12.94 594.17 13.51Q593.98 14.08 593.87 14.50Q593.77 14.92 593.75 15.13L593.75 15.13Q594.89 14.90 596.04 14.73Q597.20 14.56 598.47 14.48L598.47 14.48Q598.63 14.71 598.73 14.99Q598.84 15.27 598.84 15.60L598.84 15.60Q598.84 15.68 598.84 15.78Q598.84 15.88 598.81 15.97L598.81 15.97Q598.42 15.96 597.98 15.95Q597.55 15.95 596.85 15.95L596.85 15.95Q596.39 15.95 595.97 15.97Q595.56 15.99 595.14 16.03Q594.72 16.07 594.25 16.14Q593.78 16.21 593.19 16.31L593.19 16.31Q592.55 16.06 591.95 15.08L591.95 15.08Q592.19 14.57 592.61 13.54Q593.04 12.52 593.70 10.79L593.70 10.79Q593.07 10.60 592.87 10.09L592.87 10.09Q592.94 10.02 593.28 9.92Q593.61 9.81 594.10 9.70L594.10 9.70Q594.31 9.16 594.46 8.75Q594.61 8.34 594.72 7.99Q594.83 7.63 594.92 7.29Q595.01 6.94 595.10 6.54L595.10 6.54Q594.61 6.51 594.33 6.27Q594.05 6.02 594.05 5.63L594.05 5.63Q594.05 5.52 594.08 5.36Q594.12 5.21 594.16 5.10L594.16 5.10Q594.44 5.14 594.70 5.15Q594.96 5.17 595.38 5.17L595.38 5.17Q596.26 5.17 597.03 5.12Q597.80 5.07 598.42 5.01Q599.05 4.96 599.49 4.91Q599.94 4.86 600.18 4.86L600.18 4.86Q600.50 4.86 600.75 5.19Q601.01 5.53 601.13 6.15L601.13 6.15Q600.70 6.10 600.42 6.09Q600.15 6.08 599.94 6.08L599.94 6.08Q599.17 6.08 598.53 6.15Q597.90 6.23 597.31 6.31L597.31 6.31Q597.23 6.44 597.12 6.64Q597.02 6.83 596.85 7.18Q596.68 7.53 596.43 8.06Q596.19 8.60 595.84 9.39L595.84 9.39Q596.37 9.31 596.84 9.26Q597.31 9.21 597.63 9.21ZM607.71 15.71L607.71 15.71Q607.49 15.68 607.24 15.52Q607.00 15.36 606.93 15.16L606.93 15.16Q606.93 14.99 606.98 14.73Q607.03 14.46 607.10 14.19Q607.17 13.92 607.24 13.67Q607.31 13.43 607.33 13.30L607.33 13.30Q607.50 13.30 607.76 13.38Q608.02 13.47 608.29 13.62Q608.57 13.76 608.81 13.95Q609.06 14.14 609.18 14.34L609.18 14.34Q609.06 14.62 608.86 14.87Q608.66 15.12 608.45 15.31Q608.23 15.50 608.03 15.60Q607.84 15.71 607.71 15.71Z"></path></g></svg>